<?xml version="1.0" standalone="no"?>
<!DOCTYPE svg PUBLIC "-//W3C//DTD SVG 20010904//EN"
 "http://www.w3.org/TR/2001/REC-SVG-20010904/DTD/svg10.dtd">
<svg version="1.0" xmlns="http://www.w3.org/2000/svg"
 width="635.000000pt" height="635.000000pt" viewBox="0 0 635.000000 635.000000"
 preserveAspectRatio="xMidYMid meet">

<g transform="translate(0.000000,635.000000) scale(0.100000,-0.100000)"
fill="#000000" stroke="none">
<path d="M3664 6249 c-3 -5 -14 -9 -25 -9 -10 0 -19 -3 -19 -7 0 -5 31 -8 68
-9 88 -1 106 -7 92 -33 -10 -19 -43 -23 -67 -8 -32 20 -267 -5 -317 -32 -17
-10 -37 -16 -43 -14 -17 6 -103 -57 -103 -74 0 -8 -4 -12 -9 -9 -5 3 -14 -1
-21 -9 -9 -11 -9 -15 -1 -15 8 0 8 -4 -1 -14 -7 -8 -15 -12 -17 -10 -2 2 -10
-1 -18 -8 -7 -6 -16 -8 -19 -5 -4 3 -16 -3 -27 -14 -12 -11 -26 -18 -32 -16
-23 9 -145 -75 -145 -100 0 -5 -18 -20 -40 -35 -40 -25 -52 -40 -126 -146 -31
-44 -38 -63 -39 -108 -2 -33 -8 -61 -18 -72 -17 -19 -23 -102 -12 -163 5 -23
1 -52 -9 -83 -9 -25 -16 -67 -16 -91 0 -24 -7 -70 -15 -102 -8 -31 -15 -78
-15 -103 0 -25 -7 -64 -15 -87 -8 -22 -17 -72 -20 -110 l-6 -68 25 51 c32 69
46 76 46 24 0 -23 -4 -49 -9 -58 -12 -23 -20 -142 -11 -167 5 -13 9 -1 14 40
3 33 20 107 36 165 31 114 55 237 66 340 8 77 20 106 38 91 18 -15 168 -6 203
13 16 8 60 20 96 26 37 7 67 16 67 21 0 5 3 8 8 7 6 -2 57 13 102 29 23 9 148
5 225 -6 49 -8 71 -8 76 0 4 7 9 8 13 1 3 -6 51 -8 118 -6 84 2 118 0 134 -11
12 -8 32 -11 44 -8 15 4 26 1 32 -11 9 -16 11 -16 24 1 7 10 14 13 14 6 0 -7
7 -10 16 -6 14 5 16 1 12 -20 -3 -17 0 -28 10 -32 8 -3 12 -8 9 -12 -4 -3 3
-19 15 -36 12 -17 17 -27 10 -23 -7 4 -12 1 -12 -7 0 -8 -8 -21 -17 -28 -9 -8
-14 -9 -11 -4 4 6 3 17 -3 25 -7 13 -9 12 -9 -2 0 -10 -4 -18 -10 -18 -5 0
-10 -12 -10 -26 0 -26 -20 -54 -40 -54 -6 0 -8 -5 -5 -10 4 -6 10 -8 15 -5 5
3 11 1 15 -5 3 -6 -1 -13 -9 -16 -9 -3 -16 -15 -16 -25 0 -21 -16 -26 -23 -6
-3 6 -6 2 -6 -10 -1 -12 4 -25 9 -28 6 -3 10 -16 10 -28 0 -18 2 -19 10 -7 7
11 10 7 10 -17 0 -18 -4 -33 -8 -33 -5 0 -18 -9 -31 -21 -18 -17 -25 -18 -37
-8 -11 9 -18 9 -22 2 -8 -12 -72 -21 -176 -26 -56 -2 -72 -7 -86 -25 -21 -26
-20 -25 -57 -11 -15 7 -35 13 -43 14 -34 5 -46 11 -65 33 -13 14 -32 22 -53
22 -18 0 -32 4 -32 8 0 10 -64 38 -109 47 -18 4 -58 18 -87 31 -30 13 -61 24
-68 24 -7 0 -19 7 -26 15 -7 9 -15 13 -17 11 -3 -2 -21 1 -40 8 -31 11 -41 9
-89 -14 -34 -16 -60 -36 -69 -54 l-15 -29 50 5 c27 3 51 2 52 -2 2 -4 26 -18
53 -31 65 -31 66 -54 3 -55 -63 -2 -113 -20 -132 -48 -19 -29 -6 -48 43 -65
27 -9 36 -8 45 3 6 8 22 18 36 21 23 6 27 2 37 -38 12 -43 14 -45 65 -58 l53
-14 -50 -5 c-27 -3 -56 -1 -64 5 -12 8 -13 6 -8 -7 8 -23 -4 -29 -41 -19 -17
5 -33 7 -36 4 -12 -12 54 -62 96 -74 47 -12 142 -7 162 10 7 6 15 9 18 6 5 -5
49 11 116 41 18 8 40 26 49 40 28 43 103 67 103 33 0 -5 9 -9 20 -9 29 0 40
-31 40 -118 0 -68 4 -84 25 -116 14 -20 25 -43 25 -51 0 -8 5 -17 10 -20 6 -3
10 -13 10 -20 0 -15 -30 -9 -41 8 -9 13 -27 -22 -31 -59 -3 -25 0 -29 22 -29
32 0 52 -36 48 -85 -3 -30 -7 -35 -32 -38 -16 -2 -39 2 -51 8 -18 9 -28 9 -51
-3 -16 -8 -55 -18 -87 -22 -52 -6 -61 -4 -73 13 -13 20 -110 59 -120 49 -3 -2
5 -21 17 -42 21 -35 21 -38 6 -70 -15 -32 -15 -34 8 -49 13 -9 29 -16 35 -16
5 0 10 -4 10 -10 0 -12 -79 -3 -141 16 -41 13 -47 19 -59 57 -7 23 -17 52 -23
64 -7 16 -7 26 3 38 10 12 10 15 0 15 -7 0 -19 -8 -26 -17 -7 -10 -15 -15 -19
-12 -3 4 17 29 44 55 28 27 51 55 51 62 0 13 -26 17 -32 4 -5 -12 -158 -85
-165 -79 -3 4 -17 -10 -30 -31 -14 -20 -21 -38 -15 -40 5 -1 8 -12 5 -22 -4
-14 0 -20 11 -20 35 0 56 -37 59 -107 0 -18 2 -33 4 -33 9 0 49 27 59 39 7 9
20 12 35 8 75 -18 170 -50 227 -77 35 -16 75 -30 89 -30 13 0 34 -5 46 -12 21
-11 21 -12 -13 -23 -22 -8 -39 -9 -47 -3 -6 5 -25 7 -42 5 -17 -3 -33 -1 -37
4 -3 5 -16 6 -30 3 -15 -4 -24 -2 -24 6 0 7 -8 9 -22 4 -30 -9 -39 -23 -35
-56 2 -15 0 -29 -5 -30 -19 -7 34 -48 75 -58 23 -6 76 -24 117 -39 73 -28 75
-29 75 -62 0 -27 -4 -33 -17 -31 -16 3 -23 -8 -19 -30 2 -14 -32 -8 -43 7 -18
24 -165 17 -150 -7 8 -12 -18 -5 -96 25 -84 32 -139 72 -140 103 0 6 -10 22
-22 36 -49 54 -58 69 -58 93 0 29 -17 43 -22 18 -3 -14 -11 -7 -31 25 -15 23
-31 42 -36 42 -4 0 -14 18 -21 41 -10 29 -16 36 -22 26 -8 -16 16 -87 30 -87
5 0 14 -23 22 -52 7 -28 23 -62 36 -75 13 -13 24 -30 24 -38 0 -8 4 -15 9 -15
5 0 12 -7 15 -16 3 -8 2 -12 -4 -9 -6 3 -10 -3 -10 -14 0 -12 5 -21 12 -21 6
0 3 -10 -8 -22 -12 -13 -13 -18 -4 -13 9 5 7 0 -5 -14 -14 -17 -16 -24 -7 -30
10 -6 10 -15 2 -35 -6 -17 -6 -25 0 -21 6 3 10 -1 10 -9 0 -8 -4 -18 -10 -21
-5 -3 -10 -15 -10 -25 0 -10 -6 -21 -12 -23 -10 -4 -10 -6 0 -6 25 -2 11 -21
-15 -21 -50 0 -55 10 -54 106 1 49 6 118 10 154 9 66 6 84 -9 75 -15 -9 -116
-169 -129 -205 -7 -19 -20 -48 -28 -63 -18 -35 -13 -52 18 -54 19 -2 31 8 54
45 26 41 30 44 33 24 2 -12 -4 -48 -14 -80 -9 -31 -18 -69 -20 -83 -2 -14 -8
-53 -14 -85 -5 -32 -12 -84 -15 -114 -9 -102 -11 -116 -19 -129 -6 -9 -11 -8
-21 6 -8 12 -28 20 -51 21 -20 2 -42 6 -48 9 -6 3 0 -6 13 -20 13 -14 37 -29
53 -32 17 -4 39 -16 50 -27 19 -19 19 -20 2 -32 -23 -17 -51 -9 -57 15 -4 14
-14 19 -39 18 -31 0 -32 -1 -10 -11 26 -13 28 -26 7 -34 -24 -10 -17 -27 9
-22 14 3 31 1 38 -3 10 -7 10 -9 1 -9 -7 0 -13 -5 -13 -11 0 -6 6 -9 14 -6 8
3 20 -1 27 -9 7 -8 32 -24 56 -35 23 -11 43 -23 43 -28 0 -11 -77 -3 -106 11
-15 7 -28 7 -43 -1 -13 -7 -21 -8 -21 -2 0 6 -9 15 -20 21 -16 9 -18 8 -14 -5
4 -8 10 -15 16 -15 5 0 6 -5 3 -10 -4 -6 -10 -8 -15 -5 -5 3 -11 2 -14 -3 -4
-7 19 -20 67 -36 27 -9 9 -29 -20 -21 -30 7 -63 -25 -63 -62 0 -27 40 -200 76
-325 26 -91 25 -115 -4 -99 -48 26 -187 44 -372 48 -107 2 -213 5 -235 6 -22
1 -77 0 -122 -1 -79 -2 -83 -3 -83 -24 0 -13 -9 -34 -20 -48 -17 -22 -22 -23
-39 -12 -23 13 -51 16 -51 5 0 -5 7 -17 15 -27 8 -11 15 -28 15 -37 0 -10 7
-25 16 -33 18 -19 10 -36 -17 -36 -25 0 -86 59 -122 116 -21 34 -32 42 -67 48
-67 11 -95 30 -117 83 -12 26 -24 63 -28 80 -5 23 -20 42 -51 65 -56 40 -71
64 -80 126 -6 45 -53 145 -54 115 0 -22 -2 -28 -13 -48 -6 -11 -12 -27 -12
-35 -2 -19 -52 -181 -72 -234 -8 -22 -18 -58 -23 -80 -4 -23 -15 -67 -24 -99
-14 -51 -14 -61 -2 -85 20 -38 90 -102 163 -148 49 -31 67 -49 85 -88 30 -65
83 -104 153 -112 53 -7 125 -26 131 -35 3 -5 9 -7 14 -4 11 7 61 -16 55 -26
-3 -4 -14 -5 -25 -2 -11 3 -34 0 -52 -6 -18 -6 -34 -8 -36 -3 -3 10 -70 3 -78
-10 -3 -5 0 -15 6 -23 6 -8 9 -19 6 -24 -4 -5 -2 -12 4 -16 6 -4 8 -11 5 -16
-4 -5 1 -12 9 -15 20 -8 21 -34 1 -34 -9 0 -20 -11 -25 -25 -12 -30 -21 -31
-45 -5 -10 11 -23 19 -29 17 -6 -2 -17 2 -24 10 -8 7 -18 11 -23 7 -5 -3 -3
-12 5 -20 9 -8 13 -21 10 -29 -4 -8 -1 -15 5 -15 6 0 11 6 12 13 1 6 7 -8 13
-33 13 -47 11 -74 -6 -64 -6 4 -5 -3 2 -15 11 -22 49 -42 63 -34 4 2 7 1 7 -2
0 -3 -16 -13 -36 -21 -32 -13 -41 -13 -87 0 -29 9 -67 29 -84 46 -25 24 -50
34 -105 45 -112 22 -149 35 -195 67 -28 19 -43 36 -43 50 0 35 -16 9 -34 -55
-18 -61 -35 -72 -56 -33 -9 19 -26 27 -69 36 -31 6 -68 11 -83 11 -14 0 -29 6
-32 14 -3 8 -14 15 -25 15 -12 0 -18 -5 -16 -13 7 -16 101 -59 134 -61 14 -1
41 -9 60 -19 19 -9 40 -17 46 -17 27 0 32 -25 19 -105 -7 -44 -16 -89 -19
-101 -5 -17 17 -45 117 -148 l123 -127 60 -9 c33 -6 90 -10 127 -10 59 0 77 5
150 42 65 34 87 51 100 78 10 19 30 41 45 48 53 27 124 112 94 112 -11 0 -51
80 -51 103 0 16 57 53 66 44 3 -3 6 -38 8 -78 3 -77 14 -107 81 -219 20 -33
40 -87 50 -135 46 -214 67 -270 114 -311 23 -20 177 -101 236 -125 11 -4 49
-19 85 -33 36 -14 94 -41 130 -60 138 -74 239 -116 276 -116 12 0 53 -10 90
-21 38 -12 92 -25 119 -29 28 -5 91 -15 140 -24 242 -42 653 -29 768 23 25 12
49 21 53 21 18 0 124 79 172 127 57 59 69 50 32 -22 -11 -22 -20 -48 -20 -59
0 -18 3 -17 30 9 17 16 30 36 30 45 0 9 14 35 31 58 33 45 33 72 -1 72 -19 0
-21 4 -15 31 10 42 77 182 70 144 -3 -16 -8 -62 -11 -101 -6 -67 -5 -73 22
-110 16 -22 61 -70 101 -108 l72 -68 118 47 c126 50 300 136 423 209 75 44 75
44 99 115 13 39 21 74 17 79 -5 4 -23 -10 -41 -30 -41 -48 -74 -55 -172 -33
l-78 18 48 14 c53 16 59 32 21 62 -20 15 -31 18 -44 11 -23 -12 -40 8 -19 21
11 8 11 11 -4 20 -22 13 -6 38 21 34 9 -1 11 0 4 2 -21 7 -7 28 16 25 23 -3
31 13 10 20 -6 2 -8 10 -4 16 10 16 26 15 26 -2 0 -8 7 -16 15 -20 16 -6 21 9
6 19 -6 3 -9 13 -9 23 0 9 -3 26 -8 37 -7 17 -6 18 8 7 14 -11 17 -7 23 33 l6
46 20 -22 c15 -17 19 -19 19 -6 0 9 7 20 16 25 8 5 16 23 16 40 1 17 4 29 8
27 4 -3 10 4 13 15 3 11 13 20 22 20 9 0 14 -4 10 -9 -3 -5 -1 -12 5 -16 5 -3
10 3 10 13 0 11 7 25 15 32 8 7 15 18 15 24 0 8 -2 8 -8 0 -4 -6 -17 -14 -29
-18 -17 -5 -23 -3 -23 8 0 8 10 17 23 21 22 6 30 9 104 40 39 16 103 81 103
105 0 6 7 27 15 47 12 28 18 34 27 25 15 -15 38 -16 38 -1 0 5 -4 8 -9 5 -4
-3 -16 3 -26 14 -13 14 -16 29 -12 52 29 152 75 434 71 437 -9 9 -28 -20 -49
-72 -19 -48 -26 -54 -87 -84 -57 -27 -75 -43 -126 -111 -78 -101 -99 -116
-168 -110 -53 5 -55 4 -126 -55 -93 -75 -103 -80 -144 -73 -46 9 -51 24 -18
53 l29 24 -27 -4 c-23 -3 -28 0 -28 15 0 11 -10 28 -22 38 l-22 18 18 57 c21
67 16 84 -8 25 -21 -52 -57 -56 -85 -9 -11 18 -22 26 -25 20 -10 -15 -39 -14
-78 3 -18 8 -89 36 -158 61 -69 26 -157 62 -197 81 -40 19 -77 34 -82 34 -5 0
-76 22 -157 49 -82 26 -161 51 -176 55 -16 3 -28 10 -28 14 0 4 30 36 66 72
96 94 227 269 303 403 36 63 62 80 100 65 14 -5 72 -11 130 -12 76 -3 120 -9
156 -24 98 -39 402 -198 489 -256 107 -71 202 -164 211 -206 4 -16 12 -30 19
-30 32 0 180 185 227 286 59 123 75 275 37 353 -25 52 -134 161 -198 198 -25
14 -54 34 -66 45 -11 10 -36 27 -55 36 -46 25 -108 61 -139 81 -47 30 -65 41
-80 48 -8 4 -44 25 -80 48 -36 23 -94 59 -130 80 -36 21 -90 57 -120 80 -30
23 -70 50 -89 59 l-34 18 7 -64 c3 -34 11 -119 16 -188 6 -69 15 -154 20 -190
23 -163 23 -150 -5 -148 -26 2 -26 5 -10 111 3 18 0 30 -10 33 -18 7 -20 54
-3 54 6 0 2 10 -10 23 -26 28 -27 40 -7 57 14 12 14 15 -1 32 -16 17 -16 19 0
31 16 12 16 14 2 26 -18 15 -22 41 -6 41 18 0 0 25 -30 42 -21 12 -30 25 -30
42 0 18 4 24 15 20 8 -4 15 -12 15 -20 0 -8 5 -14 10 -14 22 0 10 40 -14 46
-27 6 -36 29 -36 90 0 23 -4 54 -10 70 -5 16 -11 43 -13 59 -2 17 -9 43 -15
58 -7 16 -12 34 -12 42 0 8 -4 17 -10 20 -6 4 -11 -13 -12 -42 -1 -60 -2 -66
-10 -78 -3 -5 -9 -36 -13 -67 -4 -32 -11 -58 -16 -58 -5 0 -9 -18 -9 -40 0
-22 -4 -40 -9 -40 -5 0 -12 -8 -15 -17 -2 -10 -3 -2 -1 19 3 20 7 74 10 120 3
45 8 91 11 100 5 17 -34 140 -56 175 -8 13 -9 26 -1 46 11 28 25 35 36 17 3
-5 11 -10 16 -10 6 0 3 7 -5 16 -20 20 -21 18 13 56 35 40 77 112 136 236 32
67 49 92 63 92 10 0 29 11 42 25 21 22 22 28 11 49 -22 40 2 157 26 132 3 -3
0 -12 -6 -20 -7 -9 -10 -24 -6 -36 14 -45 52 1 94 115 16 44 41 108 55 141 16
38 28 89 31 130 6 97 18 153 61 279 35 105 59 245 42 245 -5 0 -8 28 -7 63 2
74 -4 126 -21 156 -10 20 -8 26 19 52 27 25 30 33 20 50 -8 16 -7 25 4 37 52
60 45 228 -19 442 l-13 45 5 -75 5 -75 -23 35 c-12 19 -26 37 -30 38 -5 2 -8
10 -8 18 0 8 -4 14 -9 14 -4 0 -11 15 -14 33 -3 17 -13 58 -22 90 -13 45 -20
57 -32 53 -12 -5 -14 -1 -11 19 3 14 1 25 -3 25 -5 0 -9 -6 -9 -12 0 -7 -8 -1
-18 15 -9 15 -20 27 -25 27 -4 0 -5 -4 -2 -10 3 -5 1 -10 -5 -10 -7 0 -14 8
-16 18 -7 23 -64 57 -64 37 0 -8 5 -17 10 -20 6 -3 10 -15 10 -26 0 -17 -3
-18 -22 -7 -13 7 -26 12 -30 13 -4 0 -14 9 -23 20 -15 19 -15 19 -9 -10 l5
-30 -21 27 c-34 44 -167 115 -238 128 -71 12 -220 12 -228 -1z m169 -76 c-16
-24 -18 -24 -30 -7 -16 22 0 44 27 37 18 -5 18 -6 3 -30z m87 -3 c0 -5 -4 -10
-10 -10 -5 0 -10 5 -10 10 0 6 5 10 10 10 6 0 10 -4 10 -10z m-10 -30 c0 -5
-7 -10 -16 -10 -8 0 -12 5 -9 10 3 6 10 10 16 10 5 0 9 -4 9 -10z m-52 -60 c3
-9 -1 -9 -18 0 -17 9 -24 9 -30 0 -5 -8 -18 -8 -54 1 -26 6 -74 9 -107 6 -47
-4 -59 -2 -59 9 0 15 12 16 95 15 28 -1 56 3 63 7 16 11 104 -20 110 -38z
m122 20 c12 -8 11 -10 -7 -10 -13 0 -23 5 -23 10 0 13 11 13 30 0z m205 -21
c11 -16 1 -19 -13 -3 -7 8 -8 14 -3 14 5 0 13 -5 16 -11z m-566 -150 c-18 -12
-106 -12 -113 0 -9 14 7 16 70 12 38 -2 52 -6 43 -12z m-139 1 c0 -5 -4 -10
-10 -10 -5 0 -10 5 -10 10 0 6 5 10 10 10 6 0 10 -4 10 -10z m-305 -10 c-3 -5
-10 -10 -16 -10 -5 0 -9 5 -9 10 0 6 7 10 16 10 8 0 12 -4 9 -10z m555 0 c0
-13 -20 -13 -40 0 -12 8 -9 10 13 10 15 0 27 -4 27 -10z m-387 -53 c20 -3 39
-1 42 3 3 5 21 3 40 -3 33 -10 34 -11 15 -24 -17 -12 -27 -12 -56 -3 -42 14
-131 5 -154 -15 -8 -7 -18 -14 -23 -14 -25 1 -66 -14 -61 -22 8 -14 -6 -11
-22 6 -13 12 -12 15 3 23 10 5 48 15 86 23 41 8 67 18 67 26 0 7 6 11 13 8 6
-2 29 -6 50 -8z m-557 -254 c-11 -11 -17 4 -9 23 7 18 8 18 11 1 2 -10 1 -21
-2 -24z m1431 -386 c6 -7 14 -57 17 -112 7 -116 13 -150 32 -166 8 -6 11 -21
8 -39 -4 -17 0 -37 10 -52 15 -22 15 -30 2 -74 -8 -27 -18 -62 -21 -78 -6 -26
-7 -27 -19 -10 -8 10 -11 25 -8 34 5 11 8 9 13 -10 7 -24 7 -23 8 6 1 17 -6
37 -14 44 -12 10 -15 10 -15 -1 0 -7 -7 -3 -16 9 -9 13 -13 30 -10 39 4 8 2
21 -2 27 -15 19 -42 113 -42 146 0 18 -4 29 -10 25 -6 -4 -10 11 -10 38 0 27
-6 49 -15 57 -8 7 -12 16 -9 21 3 5 0 9 -6 9 -6 0 -15 -10 -20 -22 -8 -22 -9
-22 -9 4 -1 15 4 30 10 34 8 4 7 9 -2 15 -8 5 -16 3 -21 -4 -4 -7 -6 -3 -6 9
2 21 13 25 34 12 14 -9 66 40 58 54 -9 15 47 1 63 -15z m-71 -512 c14 -14 31
-44 39 -66 18 -49 18 -49 5 -49 -5 0 -10 7 -10 16 0 8 -14 29 -30 46 -28 27
-51 78 -36 78 4 0 18 -11 32 -25z m105 -113 c-4 -84 -38 -302 -56 -353 -33
-94 -98 -254 -107 -264 -6 -6 -7 4 -3 27 4 21 2 44 -4 55 -6 10 -11 14 -11 8
0 -5 -16 -11 -36 -13 -19 -1 -43 -9 -51 -18 -21 -20 -63 -36 -79 -30 -8 3 -16
1 -20 -5 -4 -6 -11 -6 -20 2 -8 6 -14 8 -14 4 0 -5 -8 -1 -17 7 -10 8 -33 18
-51 21 -56 11 -169 138 -157 177 3 11 2 27 -3 36 -10 17 -7 22 26 59 16 18 56
19 74 2 22 -21 100 -56 147 -66 34 -7 54 -6 85 5 49 18 65 22 88 23 9 1 24 8
32 17 9 8 20 13 25 9 5 -3 12 -1 16 5 4 6 11 8 16 5 9 -6 13 8 10 33 -1 8 4
19 12 25 22 18 38 78 38 145 1 45 5 62 16 66 9 4 13 14 10 26 -3 11 -2 19 2
18 19 -2 22 4 10 19 -10 11 -10 14 -1 9 7 -4 12 -2 12 5 0 7 3 9 7 6 4 -4 5
-33 4 -65z m-457 -148 c3 -8 2 -12 -4 -9 -6 3 -10 10 -10 16 0 14 7 11 14 -7z
m157 -31 c-18 -14 -41 -17 -41 -5 0 5 10 19 22 32 21 22 22 22 28 4 5 -12 1
-23 -9 -31z m-975 -401 c-20 -20 -22 -1 -3 28 10 18 12 18 15 4 2 -9 -3 -24
-12 -32z m54 17 c0 -6 -4 -7 -10 -4 -5 3 -10 11 -10 16 0 6 5 7 10 4 6 -3 10
-11 10 -16z m305 -149 c18 -8 17 -9 -7 -9 -16 -1 -28 4 -28 9 0 12 8 12 35 0z
m81 -403 c4 -4 -2 -7 -14 -7 -12 0 -22 4 -22 9 0 10 26 9 36 -2z m-509 -573
c93 -86 111 -107 117 -137 4 -24 12 -33 27 -34 28 -2 79 -26 79 -37 0 -4 6 -4
13 2 9 8 20 7 40 -3 15 -8 27 -10 27 -5 0 5 18 9 40 7 24 -1 40 -7 40 -14 0
-7 7 -13 15 -13 8 0 15 -5 15 -11 0 -8 6 -7 17 2 9 8 14 9 10 3 -8 -13 20 -27
35 -18 5 3 7 13 4 21 -4 10 0 13 12 11 22 -4 30 -48 8 -48 -9 0 -15 -3 -15 -7
3 -18 -14 -72 -21 -68 -4 3 -15 -6 -23 -19 -15 -22 -15 -24 3 -29 14 -3 20
-14 20 -31 0 -14 -4 -26 -10 -26 -5 0 -17 -14 -26 -32 l-17 -32 25 16 c16 11
30 13 39 7 8 -5 22 -6 33 -3 16 5 18 3 12 -21 -4 -15 -17 -42 -30 -59 -29 -39
-43 -74 -23 -57 8 6 26 12 41 13 14 1 26 6 26 10 0 4 9 8 19 8 14 0 18 5 14
20 -3 13 0 20 8 21 8 0 24 2 37 3 27 3 29 -10 2 -17 -13 -3 -18 -11 -14 -20 5
-15 -28 -42 -39 -31 -8 8 -314 -136 -327 -155 -3 -4 -27 -23 -55 -41 -27 -19
-74 -58 -103 -88 -30 -30 -56 -51 -59 -49 -2 3 17 35 44 70 26 36 61 86 76
112 29 45 29 46 12 88 -9 23 -35 75 -57 116 -35 64 -38 75 -24 83 18 10 12 22
-51 106 -18 24 -33 50 -33 58 0 8 -9 14 -20 14 -11 0 -33 14 -49 30 -30 32
-46 70 -30 70 6 0 6 7 0 18 -5 9 -16 49 -25 89 -15 67 -15 73 1 102 10 17 25
32 33 35 30 9 81 -6 107 -30z m1018 -104 c-3 -5 -10 -10 -16 -10 -5 0 -9 5 -9
10 0 6 7 10 16 10 8 0 12 -4 9 -10z m190 0 c-27 -12 -35 -12 -35 0 0 6 12 10
28 9 24 0 25 -1 7 -9z m-270 -90 c-3 -5 -10 -10 -16 -10 -5 0 -9 5 -9 10 0 6
7 10 16 10 8 0 12 -4 9 -10z m-1155 -70 c0 -5 -16 -10 -35 -10 -19 0 -35 -4
-35 -10 0 -5 7 -10 15 -10 8 0 15 -5 15 -11 0 -7 -10 -9 -24 -5 -14 3 -27 2
-31 -4 -9 -15 -35 0 -35 21 0 10 8 23 18 28 22 13 112 14 112 1z m37 -35 c-16
-46 -37 -59 -29 -18 4 26 31 67 39 60 2 -2 -3 -21 -10 -42z m1403 10 c0 -8 -4
-15 -10 -15 -5 0 -10 -5 -10 -11 0 -5 5 -7 10 -4 6 3 10 0 10 -8 0 -7 -16 -21
-35 -30 -30 -14 -35 -15 -35 -2 0 8 11 25 25 37 14 12 25 28 25 35 0 7 5 13
10 13 6 0 10 -7 10 -15z m101 -113 c17 -70 13 -84 -22 -75 -22 6 -22 4 -9 39
8 21 8 29 -2 36 -10 6 -10 8 0 8 18 0 15 27 -4 34 -13 5 -14 9 -4 21 17 21 21
15 41 -63z m-1629 46 c18 18 28 15 28 -8 0 -11 -7 -20 -16 -20 -25 0 -55 20
-48 32 4 7 9 6 15 -3 6 -11 11 -11 21 -1z m815 -25 c-14 -15 -29 -24 -33 -20
-8 7 20 37 35 37 6 0 11 5 11 12 0 6 3 8 7 4 4 -3 -5 -19 -20 -33z m635 14 c4
-7 8 -17 8 -23 0 -16 -62 -26 -89 -16 -20 7 -21 9 -7 21 11 9 16 10 16 2 0 -6
5 -11 10 -11 6 0 10 8 10 18 0 21 40 28 52 9z m-1136 -62 c18 -44 18 -69 0
-62 -7 3 -19 0 -26 -6 -10 -9 -11 -9 -5 1 4 9 0 15 -14 19 -12 3 -21 13 -21
22 1 67 42 84 66 26z m1224 31 c0 -3 -4 -8 -10 -11 -5 -3 -10 -1 -10 4 0 6 5
11 10 11 6 0 10 -2 10 -4z m-1435 -34 c1 -4 6 -17 13 -29 17 -30 3 -29 -31 3
-23 21 -26 28 -16 40 9 11 15 12 23 4 6 -6 11 -14 11 -18z m1372 -29 c2 -6 -5
-13 -17 -16 -11 -3 -18 -1 -14 4 3 5 -1 9 -8 9 -9 0 -9 3 2 10 17 11 32 8 37
-7z m-77 3 c0 -3 -4 -8 -10 -11 -5 -3 -10 -1 -10 4 0 6 5 11 10 11 6 0 10 -2
10 -4z m138 -8 c8 -10 5 -13 -13 -13 -18 0 -21 3 -13 13 6 6 12 12 13 12 1 0
7 -6 13 -12z m-638 -8 c0 -5 -4 -10 -10 -10 -5 0 -10 5 -10 10 0 6 5 10 10 10
6 0 10 -4 10 -10z m-613 -70 c-5 -18 40 -60 63 -60 6 0 13 -7 16 -15 4 -8 10
-13 14 -10 4 3 10 -4 13 -15 7 -27 -3 -25 -51 10 -23 17 -46 30 -52 30 -5 0
-10 5 -10 10 0 6 -5 10 -10 10 -13 0 -70 41 -70 50 0 4 11 5 24 3 13 -3 27 0
30 6 10 16 38 0 33 -19z m623 20 c0 -5 -7 -10 -15 -10 -8 0 -15 5 -15 10 0 6
7 10 15 10 8 0 15 -4 15 -10z m-1661 -747 c20 -59 44 -73 131 -73 36 -1 85 -5
110 -11 25 -6 71 -14 103 -19 32 -6 90 -25 130 -43 40 -18 119 -46 177 -61 58
-16 123 -34 145 -41 22 -7 112 -36 200 -65 88 -28 169 -55 180 -59 24 -10 111
-37 290 -90 263 -78 342 -100 425 -117 108 -22 159 -42 139 -55 -11 -7 -11 -9
4 -9 9 0 17 4 17 9 0 5 27 18 60 29 63 22 80 13 40 -21 -14 -12 -18 -24 -14
-45 5 -25 3 -28 -23 -27 -36 0 -45 -38 -14 -66 15 -14 20 -31 19 -59 -1 -22
-6 -40 -11 -40 -5 0 -7 -15 -4 -32 3 -18 3 -27 0 -21 -3 10 -9 10 -26 -2 -12
-9 -25 -11 -31 -6 -8 6 -11 -2 -12 -25 -1 -38 1 -39 36 -19 38 22 45 18 13 -8
-40 -34 -82 -42 -98 -21 -12 16 -13 16 -19 -4 -9 -29 -26 -28 -27 1 l-2 22 -4
-22 c-5 -28 -12 -29 -29 -5 -12 16 -12 16 -11 -3 1 -11 -4 -21 -13 -21 -8 -1
-17 -3 -20 -4 -36 -13 -190 -17 -210 -5 -8 5 -23 10 -35 11 -16 3 -115 20
-220 38 -11 2 -58 9 -105 15 -82 10 -165 31 -260 65 -51 19 -190 57 -335 92
-55 13 -125 33 -155 44 -30 10 -74 24 -97 30 -71 18 -320 217 -472 377 -74 78
-86 95 -103 153 -25 89 -17 144 29 188 19 17 43 32 54 32 14 0 19 7 19 27 0
35 10 23 29 -34z m-187 -153 c21 0 -26 -149 -52 -165 -5 -3 -9 30 -9 77 0 83
8 104 37 93 8 -3 18 -5 24 -5z m-202 -52 c0 -5 -4 -8 -10 -8 -5 0 -10 10 -10
23 0 18 2 19 10 7 5 -8 10 -18 10 -22z m2655 -355 c-16 -3 -35 -9 -42 -14 -6
-6 -14 -6 -17 -1 -9 16 6 22 48 21 34 -2 36 -3 11 -6z m655 -52 c0 -11 -39
-41 -52 -41 -5 0 -8 5 -8 10 0 6 6 10 14 10 8 0 16 7 20 15 6 16 26 21 26 6z
m-167 -33 c12 -6 32 -11 46 -12 13 -1 26 -7 29 -15 3 -10 0 -12 -12 -8 -11 4
-16 1 -17 -11 0 -14 -2 -14 -9 3 -7 17 -9 17 -9 3 -1 -10 -6 -18 -12 -18 -8 0
-8 -5 1 -15 10 -12 10 -15 -4 -15 -10 0 -16 -9 -16 -24 0 -14 -5 -28 -10 -31
-6 -4 -8 -11 -5 -16 4 -5 1 -9 -4 -9 -6 0 -11 -7 -11 -15 0 -8 -9 -15 -20 -15
-13 0 -20 -7 -20 -20 0 -10 -6 -24 -12 -30 -52 -44 -74 -60 -81 -60 -5 0 -5
-4 -2 -10 4 -6 -5 -10 -19 -10 -17 0 -26 -6 -26 -15 0 -9 -12 -18 -30 -21 -20
-4 -30 -13 -30 -24 0 -18 -5 -19 -47 -5 -27 9 -31 34 -5 37 48 4 90 26 98 52
8 25 29 47 38 39 3 -4 6 -2 6 4 0 5 -3 13 -7 17 -4 4 -6 23 -4 42 2 25 -1 34
-13 34 -8 0 -17 -4 -20 -9 -3 -5 -16 -11 -29 -13 -20 -4 -23 -1 -19 19 2 12 8
20 13 17 5 -3 9 0 9 5 0 6 7 11 15 11 8 0 15 5 15 10 0 6 6 10 14 10 8 0 17 7
20 16 3 9 12 14 20 11 18 -7 41 38 38 73 -3 27 -2 27 53 29 31 0 66 -4 78 -11z
m-432 -259 c33 -23 31 -34 -8 -42 -16 -3 -36 -9 -46 -12 -12 -5 -16 -3 -12 6
28 80 24 78 66 48z"/>
<path d="M4096 4242 c-3 -6 -1 -14 5 -17 15 -10 25 3 12 16 -7 7 -13 7 -17 1z"/>
<path d="M2845 2630 c3 -5 8 -10 11 -10 2 0 4 5 4 10 0 6 -5 10 -11 10 -5 0
-7 -4 -4 -10z"/>
<path d="M3316 2509 c3 -6 0 -17 -7 -25 -13 -16 -6 -30 10 -19 6 3 15 14 21
24 7 15 5 20 -10 24 -11 3 -17 1 -14 -4z"/>
<path d="M3256 2424 c-8 -21 -1 -28 19 -20 9 3 15 11 13 18 -7 19 -25 20 -32
2z"/>
<path d="M3215 2370 c-17 -19 -17 -20 0 -20 10 0 15 3 12 7 -4 3 1 12 11 19 9
7 12 14 6 14 -6 0 -19 -9 -29 -20z"/>
<path d="M3295 2380 c3 -5 8 -10 11 -10 2 0 4 5 4 10 0 6 -5 10 -11 10 -5 0
-7 -4 -4 -10z"/>
<path d="M1920 1471 c0 -6 4 -13 10 -16 6 -3 7 1 4 9 -7 18 -14 21 -14 7z"/>
<path d="M1950 1435 c0 -5 5 -17 10 -25 5 -8 10 -10 10 -5 0 6 -5 17 -10 25
-5 8 -10 11 -10 5z"/>
<path d="M3887 900 c-3 -11 -1 -23 4 -26 5 -3 9 6 9 20 0 31 -6 34 -13 6z"/>
<path d="M3740 885 c7 -9 15 -13 17 -11 7 7 -7 26 -19 26 -6 0 -6 -6 2 -15z"/>
<path d="M3780 880 c0 -5 5 -10 10 -10 6 0 10 5 10 10 0 6 -4 10 -10 10 -5 0
-10 -4 -10 -10z"/>
<path d="M3730 828 c0 -4 7 -8 15 -8 8 0 15 4 15 8 0 5 -7 9 -15 9 -8 0 -15
-4 -15 -9z"/>
<path d="M3912 780 c0 -14 2 -19 5 -12 2 6 2 18 0 25 -3 6 -5 1 -5 -13z"/>
<path d="M3730 715 c0 -15 6 -25 14 -25 22 0 30 19 16 35 -18 22 -30 18 -30
-10z"/>
<path d="M4571 874 c0 -11 3 -14 6 -6 3 7 2 16 -1 19 -3 4 -6 -2 -5 -13z"/>
<path d="M4453 862 c-41 -6 -25 -28 16 -22 8 1 18 -4 22 -12 7 -10 9 -10 9 0
0 6 9 12 20 12 11 0 20 5 20 12 0 6 -3 9 -6 6 -3 -4 -18 -3 -32 1 -15 4 -37 5
-49 3z"/>
<path d="M5263 5455 c-17 -19 -17 -30 0 -16 10 8 17 7 25 -1 17 -17 27 -2 12
17 -15 18 -21 18 -37 0z"/>
<path d="M5350 5370 c0 -13 11 -13 30 0 12 8 11 10 -7 10 -13 0 -23 -4 -23
-10z"/>
<path d="M5450 5306 c0 -2 7 -9 15 -16 12 -10 15 -10 15 4 0 9 -7 16 -15 16
-8 0 -15 -2 -15 -4z"/>
<path d="M5550 5241 c0 -6 5 -13 10 -16 8 -5 8 -11 0 -20 -8 -10 -7 -14 2 -17
7 -3 18 2 25 11 9 13 8 20 -4 34 -18 19 -33 22 -33 8z"/>
<path d="M3992 5190 c0 -14 2 -19 5 -12 2 6 2 18 0 25 -3 6 -5 1 -5 -13z"/>
<path d="M2672 4395 c0 -16 2 -22 5 -12 2 9 2 23 0 30 -3 6 -5 -1 -5 -18z"/>
<path d="M2665 4339 c-4 -12 -2 -26 4 -32 8 -8 11 -2 11 21 0 37 -6 41 -15 11z"/>
<path d="M2711 3914 c0 -11 3 -14 6 -6 3 7 2 16 -1 19 -3 4 -6 -2 -5 -13z"/>
<path d="M2670 3670 c0 -5 5 -10 10 -10 6 0 10 5 10 10 0 6 -4 10 -10 10 -5 0
-10 -4 -10 -10z"/>
<path d="M2465 3634 c-65 -23 -171 -50 -375 -95 -97 -21 -226 -55 -255 -68
-19 -9 -69 -25 -150 -50 -97 -31 -212 -86 -247 -119 -62 -59 -92 -141 -108
-292 -9 -85 1 -166 31 -245 20 -55 41 -65 54 -25 6 18 77 64 166 106 92 43
265 73 427 74 39 0 72 4 72 8 0 5 -16 17 -35 28 -19 10 -35 23 -35 29 0 5 36
53 81 105 44 52 103 132 131 178 66 106 245 321 297 355 68 45 52 48 -54 11z"/>
<path d="M2633 3640 c-13 -5 -23 -14 -23 -19 0 -5 -9 -13 -20 -16 -11 -3 -20
-12 -20 -20 0 -7 -6 -16 -12 -18 -8 -3 -8 -6 -2 -6 6 -1 19 8 29 19 10 11 26
20 37 20 10 0 18 5 18 11 0 7 8 18 18 25 19 15 8 17 -25 4z"/>
<path d="M4040 3494 c0 -8 18 -45 40 -81 22 -37 40 -70 40 -75 0 -4 5 -8 11
-8 21 0 -3 93 -34 132 -33 42 -57 55 -57 32z"/>
<path d="M2565 3320 c3 -5 8 -10 11 -10 2 0 4 5 4 10 0 6 -5 10 -11 10 -5 0
-7 -4 -4 -10z"/>
<path d="M2575 3200 c-3 -5 1 -10 9 -10 9 0 16 5 16 10 0 6 -4 10 -9 10 -6 0
-13 -4 -16 -10z"/>
<path d="M4115 3190 c3 -5 8 -10 11 -10 2 0 4 5 4 10 0 6 -5 10 -11 10 -5 0
-7 -4 -4 -10z"/>
<path d="M2510 3165 c0 -8 5 -15 10 -15 6 0 10 7 10 15 0 8 -4 15 -10 15 -5 0
-10 -7 -10 -15z"/>
<path d="M2540 3079 c0 -5 5 -7 10 -4 6 3 10 8 10 11 0 2 -4 4 -10 4 -5 0 -10
-5 -10 -11z"/>
<path d="M2471 3041 l-24 -18 22 -6 c14 -3 24 0 28 8 10 27 -2 34 -26 16z"/>
<path d="M2457 2962 c-15 -16 -15 -18 3 -18 11 0 22 6 24 13 8 20 -10 24 -27
5z"/>
<path d="M2455 2900 c-12 -13 -25 -18 -38 -14 -12 4 -18 2 -15 -6 2 -6 6 -10
8 -9 3 1 15 -3 27 -9 25 -14 38 -2 38 36 1 27 2 27 -20 2z"/>
<path d="M5340 2890 c0 -5 5 -10 11 -10 5 0 7 5 4 10 -3 6 -8 10 -11 10 -2 0
-4 -4 -4 -10z"/>
<path d="M2391 2855 c-2 -19 22 -35 51 -35 15 0 28 5 28 10 0 6 -15 10 -34 10
-19 0 -37 6 -39 13 -3 6 -6 7 -6 2z"/>
<path d="M320 2826 c0 -9 7 -16 16 -16 17 0 14 22 -4 28 -7 2 -12 -3 -12 -12z"/>
<path d="M2387 2771 c-2 -11 3 -23 15 -30 11 -7 24 -25 30 -42 13 -38 28 -28
28 19 0 46 -8 57 -41 65 -21 5 -28 3 -32 -12z"/>
<path d="M2510 2760 c0 -5 4 -10 9 -10 6 0 13 5 16 10 3 6 -1 10 -9 10 -9 0
-16 -4 -16 -10z"/>
<path d="M760 2706 c0 -2 7 -9 15 -16 9 -7 15 -8 15 -2 0 5 -7 12 -15 16 -8 3
-15 4 -15 2z"/>
<path d="M1008 2593 c7 -3 16 -2 19 1 4 3 -2 6 -13 5 -11 0 -14 -3 -6 -6z"/>
<path d="M926 2561 c-4 -5 -2 -12 3 -15 5 -4 12 -2 15 3 4 5 2 12 -3 15 -5 4
-12 2 -15 -3z"/>
<path d="M265 2530 c-3 -5 -1 -10 4 -10 6 0 11 5 11 10 0 6 -2 10 -4 10 -3 0
-8 -4 -11 -10z"/>
<path d="M295 2530 c-4 -6 5 -10 24 -8 16 1 27 6 25 10 -7 11 -42 10 -49 -2z"/>
<path d="M970 2530 c20 -13 40 -13 40 0 0 6 -12 10 -27 10 -22 0 -25 -2 -13
-10z"/>
<path d="M605 2451 c-19 -8 -19 -8 2 -19 16 -9 23 -9 32 2 18 22 2 31 -34 17z"/>
<path d="M416 2413 c-12 -12 -6 -24 12 -21 9 1 23 -1 30 -6 13 -8 42 9 31 17
-9 8 -67 16 -73 10z"/>
<path d="M970 2400 c0 -5 5 -10 11 -10 5 0 7 5 4 10 -3 6 -8 10 -11 10 -2 0
-4 -4 -4 -10z"/>
<path d="M770 2390 c0 -5 15 -10 33 -9 27 0 29 2 12 9 -28 12 -45 12 -45 0z"/>
<path d="M550 2345 c0 -9 5 -15 11 -13 6 2 11 8 11 13 0 5 -5 11 -11 13 -6 2
-11 -4 -11 -13z"/>
<path d="M5766 2347 c3 -10 9 -15 12 -12 3 3 0 11 -7 18 -10 9 -11 8 -5 -6z"/>
<path d="M390 2320 c0 -5 7 -10 15 -10 8 0 15 5 15 10 0 6 -7 10 -15 10 -8 0
-15 -4 -15 -10z"/>
<path d="M220 2275 c0 -9 5 -15 11 -13 6 2 11 8 11 13 0 5 -5 11 -11 13 -6 2
-11 -4 -11 -13z"/>
<path d="M311 2281 c-21 -13 4 -24 39 -16 17 4 30 11 30 16 0 11 -50 12 -69 0z"/>
<path d="M717 2253 c-4 -3 5 -12 20 -20 32 -16 46 -7 19 13 -22 16 -30 17 -39
7z"/>
<path d="M775 2160 c-3 -5 1 -10 10 -10 9 0 13 5 10 10 -3 6 -8 10 -10 10 -2
0 -7 -4 -10 -10z"/>
<path d="M675 2080 c3 -5 14 -10 23 -10 15 0 15 2 2 10 -20 13 -33 13 -25 0z"/>
<path d="M740 2080 c0 -5 4 -10 9 -10 6 0 13 5 16 10 3 6 -1 10 -9 10 -9 0
-16 -4 -16 -10z"/>
<path d="M895 2040 c-8 -13 4 -32 16 -25 12 8 12 35 0 35 -6 0 -13 -4 -16 -10z"/>
<path d="M5265 1900 c3 -5 8 -10 11 -10 2 0 4 5 4 10 0 6 -5 10 -11 10 -5 0
-7 -4 -4 -10z"/>
<path d="M5588 1795 c2 -14 8 -25 13 -25 14 0 11 26 -5 39 -11 9 -12 6 -8 -14z"/>
<path d="M5935 1680 c3 -5 8 -10 11 -10 2 0 4 5 4 10 0 6 -5 10 -11 10 -5 0
-7 -4 -4 -10z"/>
<path d="M1350 1671 c0 -7 7 -14 15 -17 8 -4 12 -10 9 -15 -10 -17 13 -9 31
11 18 19 17 20 -3 20 -11 0 -27 3 -36 6 -9 3 -16 1 -16 -5z"/>
<path d="M5197 1653 c-4 -3 -7 -11 -7 -17 0 -6 5 -5 12 2 6 6 9 14 7 17 -3 3
-9 2 -12 -2z"/>
<path d="M5276 1572 c-8 -8 14 -32 29 -32 10 0 25 20 25 33 0 5 -50 4 -54 -1z"/>
<path d="M5180 1550 c0 -5 5 -10 10 -10 6 0 10 5 10 10 0 6 -4 10 -10 10 -5 0
-10 -4 -10 -10z"/>
<path d="M5235 1539 c-4 -6 -5 -13 -2 -16 7 -7 27 6 27 18 0 12 -17 12 -25 -2z"/>
<path d="M5410 1510 c0 -5 5 -10 11 -10 5 0 7 5 4 10 -3 6 -8 10 -11 10 -2 0
-4 -4 -4 -10z"/>
<path d="M1358 1483 c7 -3 16 -2 19 1 4 3 -2 6 -13 5 -11 0 -14 -3 -6 -6z"/>
<path d="M4535 1480 c-3 -5 -2 -10 4 -10 5 0 13 5 16 10 3 6 2 10 -4 10 -5 0
-13 -4 -16 -10z"/>
<path d="M5580 1477 c0 -22 11 -27 30 -15 14 9 22 9 34 -1 10 -9 16 -9 16 -3
0 14 -33 32 -59 32 -12 0 -21 -6 -21 -13z"/>
<path d="M4507 1453 c-4 -3 -7 -11 -7 -17 0 -6 5 -5 12 2 6 6 9 14 7 17 -3 3
-9 2 -12 -2z"/>
<path d="M5211 1341 c-10 -7 -10 -12 5 -30 25 -29 31 -26 26 9 -5 32 -9 35
-31 21z"/>
<path d="M1230 1332 c0 -5 7 -13 16 -16 10 -4 14 -1 12 6 -5 15 -28 23 -28 10z"/>
<path d="M5260 1310 c0 -5 5 -10 11 -10 5 0 7 5 4 10 -3 6 -8 10 -11 10 -2 0
-4 -4 -4 -10z"/>
<path d="M5090 1281 c0 -5 7 -14 15 -21 16 -14 18 -10 9 14 -6 17 -24 22 -24
7z"/>
<path d="M5157 1283 c-4 -3 2 -13 14 -21 24 -17 37 -9 19 13 -14 16 -23 19
-33 8z"/>
<path d="M5298 1270 c5 -13 14 -26 20 -28 19 -6 14 13 -8 33 -20 18 -21 18
-12 -5z"/>
<path d="M5405 1150 c3 -5 12 -10 20 -10 8 0 17 5 20 10 4 6 -5 10 -20 10 -15
0 -24 -4 -20 -10z"/>
<path d="M1555 1041 c-3 -5 -1 -12 5 -16 5 -3 10 1 10 9 0 18 -6 21 -15 7z"/>
<path d="M5030 1026 c0 -2 7 -9 15 -16 9 -7 15 -8 15 -2 0 5 -7 12 -15 16 -8
3 -15 4 -15 2z"/>
<path d="M5245 930 c-3 -5 -1 -10 4 -10 6 0 11 5 11 10 0 6 -2 10 -4 10 -3 0
-8 -4 -11 -10z"/>
<path d="M5192 898 c6 -18 28 -21 28 -4 0 9 -7 16 -16 16 -9 0 -14 -5 -12 -12z"/>
<path d="M5070 891 c0 -5 5 -13 10 -16 6 -3 10 -2 10 4 0 5 -4 13 -10 16 -5 3
-10 2 -10 -4z"/>
<path d="M1512 856 c-12 -18 -22 -40 -22 -50 0 -22 -28 -76 -39 -76 -14 0 -29
-53 -25 -87 2 -21 -3 -36 -16 -48 -22 -20 -26 -40 -10 -50 6 -3 14 4 19 17 9
22 10 22 10 -7 1 -27 11 -36 83 -82 45 -29 84 -51 85 -49 2 2 -8 23 -22 47
-25 43 -25 48 -24 222 1 98 -2 182 -7 187 -6 6 -18 -4 -32 -24z"/>
<path d="M5253 852 c-29 -4 -29 -18 -1 -25 25 -7 31 -4 26 15 -2 7 -13 12 -25
10z"/>
<path d="M1414 841 c6 -9 -36 -70 -56 -82 -22 -14 -2 -20 24 -8 41 18 71 99
37 99 -6 0 -8 -4 -5 -9z"/>
<path d="M4696 711 c-9 -14 21 -33 46 -28 20 4 19 4 -5 6 -16 0 -26 5 -22 10
3 5 1 12 -4 15 -5 4 -12 2 -15 -3z"/>
<path d="M1362 633 c-31 -34 -34 -53 -8 -53 13 0 30 28 41 68 8 27 7 27 -33
-15z"/>
<path d="M3855 114 c-21 -33 -16 -38 34 -29 42 7 59 19 41 30 -5 3 -10 1 -10
-4 0 -6 -7 -11 -15 -11 -8 0 -15 9 -15 20 0 27 -14 25 -35 -6z"/>
</g>
</svg>
